# File created by Blade
# Date/Time:  Thu Sep 25 19:32:06 2014
# Frame Rate: 120.000 fps
#------------------------------------------------------
:FULLY-SPECIFIED
:DEGREES
1514
root -3.393065 31.590556 -4.097023 3.388280 9.002203 6.776622
Spine -0.744976 7.782600 40.057235
Head 5.537312 -14.794580 -9.811620
LeftShoulder -11.347378 6.701611 37.017863
LeftArm 3.675495 -54.177204 -2.198407
LeftForeArm -33.934297 0.000000 17.232149
LeftHand -7.864522 0.000000 -13.987373
LeftHandThumb1 -26.253704 0.000000 33.147579
RightShoulder -13.268565 7.811771 -12.402203
RightArm -14.348871 -36.023140 74.470819
RightForeArm 5.133905 -0.000000 9.411277
RightHand -8.240723 -0.000000 4.446995
RightHandThumb1 -24.326973 -0.000000 -32.862282
LeftUpLeg 6.690063 -1.576955 -21.408734
LeftLeg -2.085165 -0.000000 0.000000
LeftFoot -8.765814 -0.747764 -7.183725
LeftToeBase 8.272959 -0.000000 -0.000000
RightUpLeg -23.374158 -1.352551 3.235689
RightLeg 37.730866 -0.000000 -0.000000
RightFoot -19.542666 -16.680210 -0.522211
RightToeBase -1.976926 -0.000000 0.000000
1515
root -3.399011 31.592806 -4.077991 3.462155 9.135683 6.685803
Spine -0.764470 7.801993 39.822594
Head 5.305633 -14.683830 -9.841919
LeftShoulder -11.376754 6.899011 36.794996
LeftArm 3.777903 -53.975868 -2.502014
LeftForeArm -33.307092 -0.000000 17.125563
LeftHand -6.852142 -0.000000 -14.277665
LeftHandThumb1 -26.253704 0.000000 33.147579
RightShoulder -13.310517 7.835165 -12.450353
RightArm -14.346903 -35.909330 74.559228
RightForeArm 5.160057 0.000000 9.476757
RightHand -8.165162 -0.000000 4.576670
RightHandThumb1 -24.326973 -0.000000 -32.862282
LeftUpLeg 6.644222 -1.550102 -21.286049
LeftLeg -2.021706 -0.000000 0.000000
LeftFoot -8.831805 -0.882621 -7.130081
LeftToeBase 8.276387 -0.000000 -0.000000
RightUpLeg -23.378341 -1.445759 3.345027
RightLeg 37.646099 -0.000000 -0.000000
RightFoot -19.572358 -16.702910 -0.459654
RightToeBase -1.944755 -0.000000 0.000000
1516
root -3.409848 31.595827 -4.056660 3.548832 9.270086 6.563964
Spine -0.797075 7.848213 39.628046
Head 5.075926 -14.553499 -9.933204
LeftShoulder -11.397819 7.041872 36.538883
LeftArm 3.866246 -53.633678 -2.779927
LeftForeArm -32.935711 -0.000000 17.041823
LeftHand -6.682630 0.000000 -14.345883
LeftHandThumb1 -26.253704 0.000000 33.147579
RightShoulder -13.380397 7.810253 -12.494112
RightArm -14.277559 -35.824752 74.627447
RightForeArm 5.118955 -0.000000 9.505311
RightHand -8.124219 -0.000000 4.642228
RightHandThumb1 -24.326973 -0.000000 -32.862282
LeftUpLeg 6.542410 -1.367414 -21.122607
LeftLeg -1.869927 -0.000000 0.000000
LeftFoot -8.957086 -1.103856 -6.934918
LeftToeBase 8.275966 -0.000000 -0.000000
RightUpLeg -23.387174 -1.521505 3.494915
RightLeg 37.536339 -0.000000 -0.000000
RightFoot -19.572659 -16.752406 -0.437199
RightToeBase -1.862069 -0.000000 0.000000
1517
root -3.417171 31.598429 -4.036684 3.613300 9.373969 6.468810
Spine -0.778114 7.867165 39.384718
Head 4.837421 -14.424216 -9.950950
LeftShoulder -11.444082 7.045201 36.342879
LeftArm 3.972158 -53.163118 -3.102909
LeftForeArm -32.333507 -0.000000 16.967363
LeftHand -6.988602 -0.000000 -13.916526
LeftHandThumb1 -26.253704 0.000000 33.147579
RightShoulder -13.397291 7.840710 -12.509609
RightArm -14.256988 -35.715736 74.705013
RightForeArm 5.118450 -0.000000 9.551222
RightHand -8.082631 -0.000000 4.657136
RightHandThumb1 -24.326973 -0.000000 -32.862282
LeftUpLeg 6.495907 -1.321673 -21.002115
LeftLeg -1.802248 -0.000000 0.000000
LeftFoot -9.057253 -1.199517 -6.794109
LeftToeBase 8.346077 -0.000000 -0.000000
RightUpLeg -23.376262 -1.564302 3.608588
RightLeg 37.436497 -0.000000 -0.000000
RightFoot -19.586632 -16.797286 -0.426660
RightToeBase -1.803976 -0.000000 0.000000
1518
root -3.422454 31.601963 -4.014865 3.681644 9.477004 6.349359
Spine -0.754620 7.970612 39.193480
Head 4.554174 -14.341466 -10.041275
LeftShoulder -11.444852 7.340628 36.016496
LeftArm 4.089846 -52.918810 -3.380392
LeftForeArm -31.816523 -0.000000 16.890933
LeftHand -7.156060 -0.000000 -13.630761
LeftHandThumb1 -26.253704 0.000000 33.147579
RightShoulder -13.505471 7.839829 -12.599209
RightArm -14.231079 -35.588523 74.805995
RightForeArm 5.017109 -0.000000 9.641090
RightHand -8.148400 0.000000 4.708555
RightHandThumb1 -24.326973 -0.000000 -32.862282
LeftUpLeg 6.465252 -1.360265 -20.862593
LeftLeg -1.776686 -0.000000 0.000000
LeftFoot -9.107910 -1.252647 -6.814060
LeftToeBase 8.329335 -0.000000 -0.000000
RightUpLeg -23.362207 -1.623318 3.743240
RightLeg 37.323459 -0.000000 -0.000000
RightFoot -19.608559 -16.825799 -0.388944
RightToeBase -1.748380 -0.000000 0.000000
1519
root -3.427284 31.606105 -3.992512 3.750262 9.591661 6.242279
Spine -0.749420 7.981468 38.976320
Head 4.295881 -14.214134 -10.103303
LeftShoulder -11.483275 7.264994 35.847533
LeftArm 4.176856 -52.265599 -3.744279
LeftForeArm -31.300521 0.000000 16.834794
LeftHand -7.347891 -0.000000 -13.396193
LeftHandThumb1 -26.253704 0.000000 33.147579
RightShoulder -13.526210 7.833090 -12.644936
RightArm -14.173154 -35.446802 74.856318
RightForeArm 4.999020 -0.000000 9.751119
RightHand -8.173251 -0.000000 4.834843
RightHandThumb1 -24.326973 -0.000000 -32.862282
LeftUpLeg 6.443370 -1.446545 -20.737715
LeftLeg -1.760719 -0.000000 0.000000
LeftFoot -9.148812 -1.260376 -6.795614
LeftToeBase 8.344581 -0.000000 -0.000000
RightUpLeg -23.345539 -1.672032 3.861875
RightLeg 37.215425 -0.000000 -0.000000
RightFoot -19.632989 -16.878948 -0.308153
RightToeBase -1.730685 -0.000000 0.000000
1520
root -3.431920 31.610292 -3.969382 3.826767 9.700350 6.129474
Spine -0.744496 8.023967 38.761858
Head 4.038325 -14.097807 -10.188427
LeftShoulder -11.527109 7.465081 35.550436
LeftArm 4.307777 -51.826972 -4.039686
LeftForeArm -30.903613 -0.000000 16.737234
LeftHand -7.585637 -0.000000 -13.040382
LeftHandThumb1 -26.253704 0.000000 33.147579
RightShoulder -13.576363 7.869682 -12.722510
RightArm -14.165496 -35.318163 74.972437
RightForeArm 4.786061 -0.000000 9.839128
RightHand -8.210575 0.000000 4.794706
RightHandThumb1 -24.326973 -0.000000 -32.862282
LeftUpLeg 6.420432 -1.542456 -20.607062
LeftLeg -1.760514 -0.000000 0.000000
LeftFoot -9.214324 -1.265932 -6.745328
LeftToeBase 8.473487 -0.000000 -0.000000
RightUpLeg -23.333591 -1.714158 3.986791
RightLeg 37.094733 -0.000000 -0.000000
RightFoot -19.653444 -16.901572 -0.242040
RightToeBase -1.661843 -0.000000 0.000000
1521
root -3.436341 31.614428 -3.944545 3.907624 9.810876 6.004534
Spine -0.765514 8.101619 38.538041
Head 3.822511 -14.037949 -10.264937
LeftShoulder -11.523280 7.436194 35.379714
LeftArm 4.442257 -51.183274 -4.411888
LeftForeArm -30.508275 -0.000000 16.585020
LeftHand -7.784718 -0.000000 -12.698590
LeftHandThumb1 -26.253704 0.000000 33.147579
RightShoulder -13.628734 7.827596 -12.758927
RightArm -14.089144 -35.073733 74.991241
RightForeArm 4.669260 -0.000000 9.953525
RightHand -8.264189 0.000000 5.020440
RightHandThumb1 -24.326973 -0.000000 -32.862282
LeftUpLeg 6.400791 -1.660367 -20.466785
LeftLeg -1.773953 -0.000000 0.000000
LeftFoot -9.233292 -1.252774 -6.784473
LeftToeBase 8.401608 -0.000000 -0.000000
RightUpLeg -23.324115 -1.781875 4.129629
RightLeg 36.965424 -0.000000 -0.000000
RightFoot -19.696158 -16.856277 -0.159206
RightToeBase -1.563242 -0.000000 0.000000
1522
root -3.439784 31.618146 -3.922536 3.982731 9.912436 5.900328
Spine -0.746120 8.125180 38.294301
Head 3.546863 -13.925016 -10.283512
LeftShoulder -11.543928 7.511645 35.149708
LeftArm 4.516064 -50.672793 -4.725869
LeftForeArm -30.066939 -0.000000 16.466078
LeftHand -7.766298 0.000000 -12.856237
LeftHandThumb1 -26.253704 0.000000 33.147579
RightShoulder -13.658159 7.870946 -12.806129
RightArm -14.063473 -35.053254 75.113370
RightForeArm 4.474457 -0.000000 10.012558
RightHand -8.246794 -0.000000 4.948813
RightHandThumb1 -24.326973 -0.000000 -32.862282
LeftUpLeg 6.373535 -1.742968 -20.346564
LeftLeg -1.766008 -0.000000 0.000000
LeftFoot -9.277867 -1.268804 -6.769559
LeftToeBase 8.431695 -0.000000 -0.000000
RightUpLeg -23.320794 -1.823646 4.244610
RightLeg 36.860852 -0.000000 -0.000000
RightFoot -19.703893 -16.870506 -0.110951
RightToeBase -1.473621 -0.000000 0.000000
1523
root -3.442414 31.621820 -3.895607 4.054601 10.001838 5.784001
Spine -0.740212 8.178272 38.054017
Head 3.331604 -13.837109 -10.372248
LeftShoulder -11.562037 7.589261 34.935458
LeftArm 4.672179 -50.228014 -5.118135
LeftForeArm -29.835540 -0.000000 16.310689
LeftHand -7.726910 -0.000000 -12.796650
LeftHandThumb1 -26.253704 0.000000 33.147579
RightShoulder -13.704678 7.873826 -12.848129
RightArm -14.020434 -35.025892 75.217105
RightForeArm 4.169666 -0.000000 10.072022
RightHand -8.198409 -0.000000 4.949213
RightHandThumb1 -24.326973 -0.000000 -32.862282
LeftUpLeg 6.363921 -1.821535 -20.217903
LeftLeg -1.784562 -0.000000 0.000000
LeftFoot -9.316674 -1.265493 -6.736061
LeftToeBase 8.432932 -0.000000 -0.000000
RightUpLeg -23.301312 -1.842788 4.363695
RightLeg 36.757824 -0.000000 -0.000000
RightFoot -19.698119 -16.947292 -0.107518
RightToeBase -1.461366 -0.000000 0.000000
1524
root -3.444817 31.626038 -3.867512 4.136236 10.115443 5.639813
Spine -0.764201 8.227321 37.836782
Head 3.094460 -13.758531 -10.398931
LeftShoulder -11.570478 7.705428 34.714387
LeftArm 4.847317 -49.870541 -5.520435
LeftForeArm -29.394845 -0.000000 16.140825
LeftHand -8.014296 -0.000000 -12.571020
LeftHandThumb1 -26.253704 0.000000 33.147579
RightShoulder -13.767144 7.865282 -12.902102
RightArm -13.972572 -35.064918 75.304317
RightForeArm 4.252730 -0.000000 10.171391
RightHand -8.136337 -0.000000 5.075523
RightHandThumb1 -24.326973 -0.000000 -32.862282
LeftUpLeg 6.350394 -1.916614 -20.057433
LeftLeg -1.806800 -0.000000 0.000000
LeftFoot -9.356869 -1.278925 -6.715865
LeftToeBase 8.470887 -0.000000 -0.000000
RightUpLeg -23.291494 -1.921115 4.524948
RightLeg 36.621233 -0.000000 -0.000000
RightFoot -19.699450 -16.892434 -0.060508
RightToeBase -1.336226 -0.000000 0.000000
1525
root -3.446544 31.628926 -3.838870 4.217467 10.207340 5.529615
Spine -0.785026 8.265679 37.555671
Head 2.885354 -13.681888 -10.399793
LeftShoulder -11.591352 7.782951 34.500474
LeftArm 5.016599 -49.419447 -5.892432
LeftForeArm -29.078023 -0.000000 15.973447
LeftHand -8.046169 0.000000 -12.810165
LeftHandThumb1 -26.253704 0.000000 33.147579
RightShoulder -13.767525 7.909704 -12.902493
RightArm -14.009598 -35.026431 75.420402
RightForeArm 4.086759 0.000000 10.281656
RightHand -8.223189 -0.000000 5.151487
RightHandThumb1 -24.326973 -0.000000 -32.862282
LeftUpLeg 6.340545 -1.987678 -19.933060
LeftLeg -1.833315 -0.000000 0.000000
LeftFoot -9.413741 -1.281748 -6.637734
LeftToeBase 8.533939 -0.000000 -0.000000
RightUpLeg -23.279788 -1.971830 4.647699
RightLeg 36.506164 -0.000000 -0.000000
RightFoot -19.708953 -16.913318 -0.068203
RightToeBase -1.203921 -0.000000 0.000000
